<svg width="30" height="30" viewBox="0 0 30 30" fill="none" xmlns="http://www.w3.org/2000/svg">
<path d="M27.1875 9.09375V13.4531L26.3906 13.5C24.2813 13.5 22.3125 12.7031 20.8125 11.4375V20.7188C20.8478 22.5522 20.2781 24.3463 19.1914 25.8235C18.1048 27.3007 16.5618 28.3787 14.801 28.891C13.0401 29.4032 11.1596 29.3211 9.45013 28.6573C7.74066 27.9935 6.29748 26.785 5.34375 25.2188C6.18839 26.0411 7.20036 26.6717 8.31071 27.0677C9.42107 27.4637 10.6037 27.6157 11.7781 27.5134C12.9525 27.4111 14.0911 27.0568 15.1162 26.4748C16.1414 25.8928 17.029 25.0967 17.7188 24.1406C18.75 22.7344 19.4063 21 19.4063 19.0781V9.75C20.9063 11.0625 22.8281 11.8125 24.9844 11.8125L25.7812 11.7656V8.95312C26.2031 9.04688 26.5781 9.09375 27 9.09375H27.1875Z" fill="#FF004F"/>
<path d="M13.5938 12.3281V17.1562C12.9176 16.9718 12.2035 16.9782 11.5306 17.1746C10.8578 17.371 10.2525 17.7499 9.7817 18.2692C9.31092 18.7885 8.99309 19.428 8.8634 20.1168C8.73371 20.8056 8.79723 21.5169 9.04692 22.1719C8.55934 21.8153 8.16148 21.3501 7.88485 20.8131C7.60823 20.2761 7.46043 19.6821 7.45317 19.0781C7.4476 18.4925 7.57756 17.9136 7.83288 17.3866C8.0882 16.8596 8.46196 16.3988 8.92494 16.0402C9.38792 15.6816 9.92757 15.435 10.5017 15.3196C11.0758 15.2042 11.6689 15.2231 12.2344 15.375V12.2812H12.5157L13.5938 12.3281ZM21.5157 5.625C20.6726 4.85185 20.0567 3.86316 19.7344 2.76562H20.8594V3.42188C20.9532 4.17188 21.1876 4.92187 21.5157 5.625Z" fill="#FF004F"/>
<path d="M25.8281 9V11.8125L25.0312 11.8594C22.9218 11.8594 20.9531 11.0625 19.4531 9.79688V19.0781C19.4531 20.9531 18.8437 22.7344 17.7656 24.1406C17.0663 25.0838 16.1748 25.8679 15.15 26.4409C14.1252 27.014 12.9905 27.363 11.8207 27.4649C10.651 27.5668 9.47302 27.4193 8.36456 27.0321C7.2561 26.6449 6.24244 26.0268 5.3906 25.2187C4.60634 23.968 4.16598 22.5324 4.11397 21.057C4.06197 19.5816 4.40016 18.1186 5.0944 16.8157C5.78865 15.5128 6.81436 14.4162 8.06799 13.6365C9.32161 12.8568 10.7588 12.4216 12.2343 12.375V15.4688C11.6688 15.3169 11.0757 15.2979 10.5016 15.4133C9.92749 15.5287 9.38784 15.7754 8.92486 16.1339C8.46188 16.4925 8.08812 16.9533 7.8328 17.4803C7.57748 18.0074 7.44753 18.5863 7.4531 19.1719C7.44896 19.778 7.59179 20.376 7.86935 20.9148C8.14692 21.4536 8.55095 21.9171 9.04685 22.2656C9.30484 22.9957 9.77986 23.6294 10.4082 24.0818C11.0366 24.5343 11.7883 24.7838 12.5625 24.7969C14.625 24.7969 16.3125 23.0625 16.3125 20.9531V2.76562H19.7343C20.0476 3.8672 20.6649 4.85819 21.5156 5.625C22.3593 7.3125 23.9531 8.57813 25.8281 9Z" fill="white"/>
<path d="M12.2344 10.6875V12.2812C10.7588 12.3279 9.32166 12.763 8.06804 13.5427C6.81441 14.3224 5.7887 15.4191 5.09445 16.722C4.40021 18.0249 4.06202 19.4879 4.11402 20.9633C4.16603 22.4387 4.60639 23.8742 5.39065 25.125C4.56895 24.3283 3.91695 23.3735 3.47388 22.3182C3.03082 21.2629 2.80585 20.1289 2.81252 18.9844C2.81678 17.798 3.07259 16.626 3.56306 15.5457C4.05353 14.4654 4.76751 13.5015 5.65789 12.7174C6.54827 11.9333 7.59481 11.347 8.72843 10.9971C9.86206 10.6472 11.057 10.5417 12.2344 10.6875Z" fill="#24F5EE"/>
<path d="M19.7344 2.76562H16.3125V20.8594C16.3125 22.9688 14.625 24.7031 12.5625 24.7031C11.785 24.7037 11.0269 24.4595 10.3959 24.0052C9.76493 23.5509 9.29293 22.9095 9.04688 22.1719C9.65625 22.5938 10.4063 22.875 11.2031 22.875C11.6996 22.875 12.191 22.7765 12.6491 22.5851C13.1072 22.3938 13.5226 22.1133 13.8715 21.7601C14.2203 21.4069 14.4956 20.988 14.6812 20.5276C14.8669 20.0672 14.9593 19.5745 14.9531 19.0781V0.9375H19.5V1.03125L19.5469 1.59375C19.5469 1.96875 19.6406 2.39062 19.7344 2.76562ZM25.8281 7.26562V8.95312C23.9531 8.57812 22.3594 7.3125 21.4688 5.625C22.6473 6.72757 24.2151 7.3176 25.8281 7.26562Z" fill="#24F5EE"/>
</svg>
