<svg width="30" height="30" viewBox="0 0 30 30" fill="none" xmlns="http://www.w3.org/2000/svg">
<path d="M30 7.5C30 6 30 6 28.5 6H25.5C24 6 24 6 24 7.5C24 7.5 22.5 10.5 19.5 13.5C19.5 15 18 15 18 15C18 15 18 15 18 13.5V7.5C18 6 18 6 16.5 6H12C10.5 6 10.5 6 10.5 7.5C10.5 7.5 12 7.5 12 10.5V15C12 16.5 12 16.5 12 16.5C10.5 16.5 7.5 12 6 7.5C6 6 4.5 6 4.5 6H1.5C0 6 0 6 0 7.5C0 7.5 1.5 12 4.5 18C7.5 22.5 12 24 15 24C18 24 18 24 18 22.5V19.5C18 18 18 18 18 18C19.5 18 19.5 19.5 21 21C24 22.5 24 24 25.5 24H28.5C30 24 30 24 30 22.5C30 21 28.5 21 27 18L25.5 16.5C24 15 24 15 25.5 15C25.5 15 28.5 9 30 7.5Z" fill="#4A76A8"/>
</svg>
